<svg id="Capa_1" enable-background="new 0 0 512 512" height="512" viewBox="0 0 512 512" width="512" xmlns="http://www.w3.org/2000/svg"><g><g><g fill="#020288"><path d="m451.572 60.367c-80.439-80.425-211.324-80.425-291.764 0-38.968 38.96-60.428 90.76-60.428 145.857 0 38.512 10.486 75.413 30.105 107.444l-15.673 15.666c-16.786 16.783-38.224 29.636-61.994 37.17-12.143 3.849-23.19 10.847-31.95 20.239-13.021 13.96-20.075 32.265-19.864 51.542.21 19.27 7.657 37.42 20.97 51.105 14.016 14.409 32.797 22.421 52.885 22.561.179.001.355.002.534.002 19.891 0 38.571-7.733 52.65-21.81 8.415-8.414 14.754-18.821 18.329-30.097 7.535-23.767 20.391-45.2 37.176-61.981l15.717-15.709c32.853 20.03 70.139 30.046 107.425 30.046 52.831 0 105.662-20.106 145.882-60.318 38.968-38.962 60.428-90.762 60.428-145.86s-21.46-106.897-60.428-145.857zm-283.163 323.552c-19.043 19.039-33.601 43.272-42.101 70.08-2.648 8.352-7.159 15.753-13.405 21.999-10.299 10.297-23.963 15.954-38.514 15.954-.131 0-.262 0-.392-.001-14.693-.102-28.433-5.964-38.687-16.506-19.936-20.495-20.302-54.167-.814-75.061 6.417-6.88 14.496-12.003 23.366-14.814 26.812-8.498 51.05-23.053 70.091-42.091l13.01-13.004c5.731 7.562 12.019 14.782 18.846 21.607 6.861 6.859 14.089 13.134 21.621 18.823zm269.022-45.981c-72.643 72.629-190.84 72.629-263.482 0-35.188-35.182-54.568-81.959-54.568-131.714 0-49.754 19.38-96.532 54.568-131.714 36.321-36.314 84.031-54.471 131.741-54.471s95.42 18.157 131.741 54.472c35.189 35.181 54.569 81.959 54.569 131.713 0 49.755-19.38 96.532-54.569 131.714z"/><path d="m415.384 96.547c-60.485-60.473-158.902-60.474-219.39.001-29.257 29.252-45.37 68.203-45.37 109.677s16.113 80.425 45.37 109.677c30.243 30.237 69.97 45.356 109.695 45.356s79.452-15.119 109.694-45.356c29.258-29.252 45.37-68.203 45.37-109.677.002-41.475-16.111-80.426-45.369-109.678zm-14.14 205.211c-52.688 52.68-138.419 52.679-191.108 0-25.479-25.474-39.511-59.402-39.511-95.533 0-36.132 14.032-70.059 39.511-95.534 52.689-52.679 138.42-52.679 191.108-.001 25.479 25.475 39.511 59.402 39.511 95.534s-14.032 70.06-39.511 95.534z"/></g></g><g><circle cx="74.374" cy="437.541" fill="#b2f0fb" r="19.383"/><g><g><path d="m341.438 153.455c-20.03 0-35.745 22.333-35.745 22.333s-14.824-22.333-35.754-22.333c-20.358 0-36.983 16.791-38.071 37.121-.613 11.485 3.09 20.226 8.306 28.143 10.424 15.817 65.585 52.237 65.585 52.237s54.953-36.281 65.447-52.237c5.227-7.953 8.92-16.658 8.304-28.143-1.087-20.33-17.712-37.121-38.072-37.121z" fill="#b2f0fb"/></g></g></g></g></svg>