<?xml version="1.0" encoding="iso-8859-1"?>
<!-- Generator: Adobe Illustrator 19.0.0, SVG Export Plug-In . SVG Version: 6.00 Build 0)  -->
<svg version="1.1" id="Capa_1" xmlns="http://www.w3.org/2000/svg" xmlns:xlink="http://www.w3.org/1999/xlink" x="0px" y="0px"
	 viewBox="0 0 480 480" style="enable-background:new 0 0 480 480;" xml:space="preserve">
<g>
	<path style="fill:#999FED;" d="M8,8h208v208H8V8z"/>
	<path style="fill:#999FED;" d="M264,8h208v208H264V8z"/>
	<path style="fill:#999FED;" d="M8,264h208v208H8V264z"/>
</g>
<g>
	<path style="fill:#2B3990;" d="M216,224H8c-4.418,0-8-3.582-8-8V8c0-4.418,3.582-8,8-8h208c4.418,0,8,3.582,8,8v208
		C224,220.418,220.418,224,216,224z M16,208h192V16H16V208z"/>
	<path style="fill:#2B3990;" d="M472,224H264c-4.418,0-8-3.582-8-8V8c0-4.418,3.582-8,8-8h208c4.418,0,8,3.582,8,8v208
		C480,220.418,476.418,224,472,224z M272,208h192V16H272V208z"/>
	<path style="fill:#2B3990;" d="M216,480H8c-4.418,0-8-3.582-8-8V264c0-4.418,3.582-8,8-8h208c4.418,0,8,3.582,8,8v208
		C224,476.418,220.418,480,216,480z M16,464h192V272H16V464z"/>
	<path style="fill:#2B3990;" d="M472,352h-96v-88c0-4.418-3.582-8-8-8s-8,3.582-8,8v88h-96c-4.418,0-8,3.582-8,8s3.582,8,8,8h96v104
		c0,4.418,3.582,8,8,8s8-3.582,8-8V368h96c4.418,0,8-3.582,8-8S476.418,352,472,352z"/>
</g>
<g>
</g>
<g>
</g>
<g>
</g>
<g>
</g>
<g>
</g>
<g>
</g>
<g>
</g>
<g>
</g>
<g>
</g>
<g>
</g>
<g>
</g>
<g>
</g>
<g>
</g>
<g>
</g>
<g>
</g>
</svg>
