<?xml version="1.0" encoding="iso-8859-1"?>
<!-- Generator: Adobe Illustrator 19.0.0, SVG Export Plug-In . SVG Version: 6.00 Build 0)  -->
<svg version="1.1" id="Capa_1" xmlns="http://www.w3.org/2000/svg" xmlns:xlink="http://www.w3.org/1999/xlink" x="0px" y="0px"
	 viewBox="0 0 408.561 408.561" style="enable-background:new 0 0 408.561 408.561;" xml:space="preserve">
<g>
	<path style="fill:#00EFD1;" d="M336.46,123.826l-22.465,236.669c-2.154,21.437-20.251,37.724-41.796,37.616H140.542
		c-21.166-0.13-38.893-16.062-41.273-37.094L72.101,123.826H336.46z"/>
	<g>
		<path style="fill:#083863;" d="M272.199,408.56H140.542c-26.551-0.104-48.802-20.107-51.722-46.498L61.652,124.87
			c-0.471-2.883,0.506-5.813,2.612-7.837c1.864-2.419,4.786-3.783,7.837-3.657H336.46c3.051-0.126,5.973,1.238,7.837,3.657
			c1.91,2.143,2.855,4.977,2.612,7.837l-22.465,236.147C322.004,388.021,299.312,408.67,272.199,408.56z M83.595,134.275
			l26.122,225.698c1.84,15.673,15.045,27.534,30.824,27.69h131.657c16.159,0.081,29.731-12.134,31.347-28.212l21.42-225.175
			L83.595,134.275z"/>
		<path style="fill:#083863;" d="M374.599,47.026H266.974V30.307c0.58-16.148-12.041-29.708-28.188-30.288
			c-0.53-0.019-1.061-0.024-1.591-0.014h-65.829c-16.156-0.299-29.494,12.555-29.793,28.711c-0.01,0.53-0.005,1.061,0.014,1.591
			v16.718H33.962c-5.771,0-10.449,4.678-10.449,10.449s4.678,10.449,10.449,10.449h340.637c5.771,0,10.449-4.678,10.449-10.449
			S380.369,47.026,374.599,47.026z M162.484,47.026V30.307c-0.589-4.579,2.646-8.768,7.225-9.357
			c0.549-0.071,1.104-0.086,1.656-0.047h65.829c4.605-0.326,8.603,3.143,8.929,7.748c0.039,0.552,0.023,1.107-0.047,1.656v16.718
			H162.484z"/>
	</g>
</g>
<g>
</g>
<g>
</g>
<g>
</g>
<g>
</g>
<g>
</g>
<g>
</g>
<g>
</g>
<g>
</g>
<g>
</g>
<g>
</g>
<g>
</g>
<g>
</g>
<g>
</g>
<g>
</g>
<g>
</g>
</svg>
